<?xml version="1.0" standalone="no"?>
<!DOCTYPE svg PUBLIC "-//W3C//DTD SVG 20010904//EN"
 "http://www.w3.org/TR/2001/REC-SVG-20010904/DTD/svg10.dtd">
<svg version="1.0" xmlns="http://www.w3.org/2000/svg"
 width="201.000000pt" height="51.000000pt" viewBox="0 0 201.000000 51.000000"
 preserveAspectRatio="xMidYMid meet">

<g transform="translate(0.000000,51.000000) scale(0.100000,-0.100000)"
fill="#000000" stroke="none">
<path d="M470 328 l0 -108 300 0 300 0 0 105 c0 77 -3 105 -12 106 -7 1 -142
2 -300 3 l-288 1 0 -107z m508 65 c-16 -2 -40 -2 -55 0 -16 2 -3 4 27 4 30 0
43 -2 28 -4z"/>
<path d="M1096 433 c-3 -4 -6 -53 -6 -110 l0 -103 180 0 180 0 0 104 c0 82 -3
105 -15 110 -20 7 -331 7 -339 -1z m234 -49 c0 -20 -24 -44 -44 -44 -9 0 -16
-7 -16 -15 0 -8 5 -15 10 -15 6 0 10 -7 10 -15 0 -9 -9 -15 -25 -15 -14 0 -25
5 -25 10 0 6 -24 11 -52 12 l-53 1 55 6 c53 6 55 7 52 34 -2 19 2 27 12 27 10
0 13 6 10 15 -5 12 2 15 30 15 26 0 36 -4 36 -16z m110 -4 c0 -16 -7 -20 -30
-20 -23 0 -30 4 -30 20 0 16 7 20 30 20 23 0 30 -4 30 -20z"/>
<path d="M1464 431 c-2 -2 -4 -51 -4 -108 0 -103 0 -103 24 -103 21 0 25 5 29
38 l4 37 1 -37 2 -38 165 0 165 0 0 30 c0 17 -4 30 -10 30 -5 0 -10 16 -10 35
0 22 -5 35 -13 35 -7 0 -20 19 -28 42 l-16 42 -152 1 c-84 0 -155 -2 -157 -4z
m319 -181 c-4 -14 -14 -20 -33 -20 -19 0 -29 6 -33 20 -4 17 0 20 33 20 33 0
37 -3 33 -20z"/>
<path d="M83 419 c-17 -17 -16 -32 1 -26 25 10 26 -5 1 -25 -18 -14 -25 -29
-25 -52 0 -30 -2 -32 -30 -28 l-30 4 0 -116 0 -116 200 0 200 0 0 115 0 115
-34 0 c-19 0 -37 -6 -40 -12 -3 -7 -2 0 1 16 l6 30 -29 -21 c-47 -32 -58 -38
-49 -24 6 10 -6 12 -49 9 -53 -3 -55 -2 -38 14 9 10 32 20 50 24 29 6 32 4 25
-12 -6 -17 -5 -17 10 -5 28 22 21 41 -15 41 -34 0 -79 -24 -101 -53 -10 -15
-12 -8 -11 39 1 63 -21 105 -43 83z m35 -69 c3 -7 0 -10 -7 -6 -17 11 -25 -22
-11 -40 9 -10 10 -18 2 -26 -27 -27 -44 31 -21 73 11 22 30 21 37 -1z"/>
<path d="M210 411 c-15 -29 -12 -36 8 -18 14 13 21 14 30 5 7 -7 12 -8 12 -2
0 12 -21 34 -32 34 -4 0 -12 -9 -18 -19z"/>
<path d="M460 105 l0 -45 700 0 700 0 0 45 0 45 -700 0 -700 0 0 -45z"/>
</g>
</svg>
